<?xml version="1.0" encoding="utf-8"?>
<!-- Generator: Adobe Illustrator 23.0.6, SVG Export Plug-In . SVG Version: 6.00 Build 0)  -->
<svg version="1.1" id="katman_1" xmlns="http://www.w3.org/2000/svg" xmlns:xlink="http://www.w3.org/1999/xlink" x="0px" y="0px"
	 viewBox="0 0 123 123" style="enable-background:new 0 0 123 123;" xml:space="preserve">
<style type="text/css">
	.st0{fill:#AA1A17;}
</style>
<g id="XMLID_1346_">
	<g id="XMLID_1347_">
		<path id="XMLID_1352_" class="st0" d="M61.5,11.1c16.4,0,18.4,0.1,24.9,0.4c6,0.3,9.3,1.3,11.4,2.1c2.9,1.1,4.9,2.4,7.1,4.6
			c2.2,2.2,3.5,4.2,4.6,7.1c0.8,2.2,1.8,5.4,2.1,11.4c0.3,6.5,0.4,8.4,0.4,24.9c0,16.4-0.1,18.4-0.4,24.9c-0.3,6-1.3,9.3-2.1,11.4
			c-1.1,2.9-2.4,4.9-4.6,7.1c-2.2,2.2-4.2,3.5-7.1,4.6c-2.2,0.8-5.4,1.8-11.4,2.1c-6.5,0.3-8.4,0.4-24.9,0.4
			c-16.4,0-18.4-0.1-24.9-0.4c-6-0.3-9.3-1.3-11.4-2.1c-2.9-1.1-4.9-2.4-7.1-4.6c-2.2-2.2-3.5-4.2-4.6-7.1
			c-0.8-2.2-1.8-5.4-2.1-11.4c-0.3-6.5-0.4-8.4-0.4-24.9c0-16.4,0.1-18.4,0.4-24.9c0.3-6,1.3-9.3,2.1-11.4c1.1-2.9,2.4-4.9,4.6-7.1
			c2.2-2.2,4.2-3.5,7.1-4.6c2.2-0.8,5.4-1.8,11.4-2.1C43.1,11.1,45.1,11.1,61.5,11.1 M61.5,0C44.8,0,42.7,0.1,36.1,0.4
			c-6.5,0.3-11,1.3-14.9,2.9c-4,1.6-7.5,3.7-10.9,7.1c-3.4,3.4-5.5,6.8-7.1,10.9c-1.5,3.9-2.6,8.4-2.9,14.9C0.1,42.7,0,44.8,0,61.5
			s0.1,18.8,0.4,25.4c0.3,6.5,1.3,11,2.9,14.9c1.6,4,3.7,7.5,7.1,10.9c3.4,3.4,6.8,5.5,10.9,7.1c3.9,1.5,8.4,2.6,14.9,2.9
			c6.6,0.3,8.7,0.4,25.4,0.4c16.7,0,18.8-0.1,25.4-0.4c6.5-0.3,11-1.3,14.9-2.9c4-1.6,7.5-3.7,10.9-7.1c3.4-3.4,5.5-6.8,7.1-10.9
			c1.5-3.9,2.6-8.4,2.9-14.9c0.3-6.6,0.4-8.7,0.4-25.4s-0.1-18.8-0.4-25.4c-0.3-6.5-1.3-11-2.9-14.9c-1.6-4-3.7-7.5-7.1-10.9
			c-3.4-3.4-6.8-5.5-10.9-7.1c-3.9-1.5-8.4-2.6-14.9-2.9C80.3,0.1,78.2,0,61.5,0"/>
		<path id="XMLID_1349_" class="st0" d="M61.5,29.9c-17.4,0-31.6,14.1-31.6,31.6c0,17.4,14.1,31.6,31.6,31.6
			c17.4,0,31.6-14.1,31.6-31.6C93.1,44.1,78.9,29.9,61.5,29.9 M61.5,82C50.2,82,41,72.8,41,61.5C41,50.2,50.2,41,61.5,41
			C72.8,41,82,50.2,82,61.5C82,72.8,72.8,82,61.5,82"/>
		<path id="XMLID_1348_" class="st0" d="M101.7,28.7c0,4.1-3.3,7.4-7.4,7.4c-4.1,0-7.4-3.3-7.4-7.4c0-4.1,3.3-7.4,7.4-7.4
			C98.4,21.3,101.7,24.6,101.7,28.7"/>
	</g>
</g>
</svg>
