<?xml version="1.0" encoding="utf-8"?>
<!-- Generator: Adobe Illustrator 23.0.6, SVG Export Plug-In . SVG Version: 6.00 Build 0)  -->
<svg version="1.1" id="katman_1" xmlns="http://www.w3.org/2000/svg" xmlns:xlink="http://www.w3.org/1999/xlink" x="0px" y="0px"
	 viewBox="0 0 123 123" style="enable-background:new 0 0 123 123;" xml:space="preserve">
<style type="text/css">
	.st0{fill:#AA1A17;}
</style>
<g id="XMLID_1433_">
	<g id="XMLID_1434_">
		<g id="XMLID_1436_">
			<rect id="XMLID_1438_" x="2.4" y="41" class="st0" width="25.4" height="82"/>
			<path id="XMLID_1437_" class="st0" d="M15,30.3c8.3,0,15-6.8,15-15.1C30,6.8,23.3,0,15,0C6.7,0,0,6.8,0,15.1
				C0,23.5,6.7,30.3,15,30.3z"/>
		</g>
		<path id="XMLID_1435_" class="st0" d="M68.4,80c0-11.5,5.3-18.4,15.5-18.4c9.3,0,13.8,6.6,13.8,18.4c0,11.8,0,43,0,43h25.3
			c0,0,0-30,0-51.9c0-22-12.4-32.6-29.8-32.6C75.7,38.5,68.4,52,68.4,52V41H44v82h24.3C68.4,123,68.4,92.6,68.4,80z"/>
	</g>
</g>
</svg>
