<?xml version="1.0" encoding="utf-8"?>
<!-- Generator: Adobe Illustrator 23.0.6, SVG Export Plug-In . SVG Version: 6.00 Build 0)  -->
<svg version="1.1" id="katman_1" xmlns="http://www.w3.org/2000/svg" xmlns:xlink="http://www.w3.org/1999/xlink" x="0px" y="0px"
	 viewBox="0 0 123 123" style="enable-background:new 0 0 123 123;" xml:space="preserve">
<style type="text/css">
	.st0{fill:#AA1A17;}
</style>
<g id="XMLID_1424_">
	<path id="XMLID_1425_" class="st0" d="M61.6,0C27.6,0,0.1,27.5,0.1,61.4c0,33.9,27.5,61.4,61.4,61.4c33.9,0,61.4-27.5,61.4-61.4
		C123,27.5,95.5,0,61.6,0z M89.8,88.8c-1.2,1.8-3.4,2.5-5.2,1.2C70.2,81.1,52,79.3,30.5,84.2c-2.2,0.6-4-0.9-4.6-2.8
		c-0.6-2.2,0.9-4,2.8-4.6c23.3-5.2,43.6-3.1,59.6,6.8C90.4,84.5,90.7,86.9,89.8,88.8z M97.2,71.9c-1.5,2.2-4.3,3.1-6.5,1.5
		C74.2,63.3,49,60.2,29.6,66.4c-2.5,0.6-5.2-0.6-5.8-3.1c-0.6-2.5,0.6-5.2,3.1-5.8c22.4-6.8,50.1-3.4,69.1,8.3
		C97.8,66.7,98.7,69.7,97.2,71.9z M97.8,54.7C78.1,43,45.3,41.8,26.5,47.6c-3.1,0.9-6.1-0.9-7.1-3.7c-0.9-3.1,0.9-6.1,3.7-7.1
		c21.8-6.5,57.8-5.2,80.5,8.3c2.8,1.5,3.7,5.2,2.2,8C104.3,55.3,100.6,56.2,97.8,54.7z"/>
</g>
</svg>
